<?xml version="1.0" encoding="UTF-8" standalone="no"?>
<svg
   id="b19d21a7-7bc0-44bd-ab2a-ad7473c6bec7"
   data-name="Layer 1"
   width="813.67175"
   height="423.48837"
   viewBox="0 0 813.67174 423.48836"
   version="1.1"
   sodipodi:docname="hello.svg"
   inkscape:version="1.1 (c68e22c387, 2021-05-23)"
   xmlns:inkscape="http://www.inkscape.org/namespaces/inkscape"
   xmlns:sodipodi="http://sodipodi.sourceforge.net/DTD/sodipodi-0.dtd"
   xmlns="http://www.w3.org/2000/svg"
   xmlns:svg="http://www.w3.org/2000/svg">
  <defs
     id="defs111" />
  <sodipodi:namedview
     id="namedview109"
     pagecolor="#ffffff"
     bordercolor="#666666"
     borderopacity="1.0"
     inkscape:pageshadow="2"
     inkscape:pageopacity="0.0"
     inkscape:pagecheckerboard="0"
     showgrid="false"
     inkscape:zoom="0.85921992"
     inkscape:cx="427.13162"
     inkscape:cy="237.42466"
     inkscape:window-width="1366"
     inkscape:window-height="723"
     inkscape:window-x="0"
     inkscape:window-y="20"
     inkscape:window-maximized="1"
     inkscape:current-layer="b19d21a7-7bc0-44bd-ab2a-ad7473c6bec7"
     fit-margin-top="0"
     fit-margin-left="0"
     fit-margin-right="0"
     fit-margin-bottom="0" />
  <path
     d="M 799.17399,175.25766 H 224.59783 a 9.19888,9.19888 0 0 0 0,18.39776 h 16.275 V 413.7209 a 9.19888,9.19888 0 0 0 18.39776,0 l 0.1398,-220.06548 h 461.1557 l 42.52,220.06548 a 9.198875,9.198875 0 1 0 18.39775,0 l 2.67633,-220.06548 H 799.174 a 9.19888,9.19888 0 0 0 0,-18.39776 z"
     fill="#cccccc"
     id="path2" />
  <path
     d="m 324.19299,134.26877 v 38.9547 h -97.59616 a 19.489154,19.489154 0 1 1 -1.35523,-38.95474 q 0.67739,-0.0236 1.35523,0 z"
     fill="#f2f2f2"
     id="path4" />
  <path
     d="m 326.59032,172.92382 a 1.49881,1.49881 0 0 1 -1.49822,1.49822 H 224.85856 a 20.52615,20.52615 0 0 1 0,-41.05229 H 325.0921 a 1.49827,1.49827 0 1 1 0,2.99653 H 224.85856 a 17.52964,17.52964 0 0 0 0,35.05924 H 325.0921 a 1.49883,1.49883 0 0 1 1.49822,1.4983 z"
     fill="#27c38e"
     id="path6" />
  <path
     d="M 324.19299,143.2583 H 219.31488 a 0.29966002,0.29966002 0 0 1 -0.006,-0.59929 h 104.88363 a 0.29966,0.29966 0 0 1 0,0.59929 z"
     fill="#cccccc"
     id="path8" />
  <path
     d="M 324.19299,150.44999 H 219.31488 a 0.29966002,0.29966002 0 0 1 -0.006,-0.59929 h 104.88363 a 0.29966,0.29966 0 0 1 0,0.59929 z"
     fill="#cccccc"
     id="path10" />
  <path
     d="M 324.19299,157.64162 H 219.31488 a 0.29966002,0.29966002 0 0 1 -0.006,-0.59929 h 104.88363 a 0.29966,0.29966 0 0 1 0,0.59929 z"
     fill="#cccccc"
     id="path12" />
  <path
     d="M 324.19299,164.83317 H 219.31488 a 0.29966002,0.29966002 0 0 1 -0.006,-0.59929 h 104.88363 a 0.29966,0.29966 0 0 1 0,0.59929 z"
     fill="#cccccc"
     id="path14" />
  <path
     d="m 305.79524,93.22762 v 38.95474 h -97.59617 a 19.489153,19.489153 0 0 1 -1.35522,-38.95474 q 0.67737,-0.0236 1.35522,0 z"
     fill="#f2f2f2"
     id="path16" />
  <path
     d="m 308.19256,131.88272 a 1.49885,1.49885 0 0 1 -1.49822,1.49826 H 206.46083 a 20.526145,20.526145 0 0 1 0,-41.05229 h 100.23351 a 1.49826,1.49826 0 1 1 0,2.99652 H 206.46083 a 17.52964,17.52964 0 0 0 0,35.05928 h 100.23351 a 1.49884,1.49884 0 0 1 1.49822,1.49823 z"
     fill="#3f3d56"
     id="path18" />
  <path
     d="M 305.79524,102.21716 H 200.91713 a 0.29966002,0.29966002 0 0 1 -0.006,-0.59929 h 104.88364 a 0.29966,0.29966 0 0 1 0,0.59929 z"
     fill="#cccccc"
     id="path20" />
  <path
     d="M 305.79524,109.40884 H 200.91713 a 0.29966002,0.29966002 0 0 1 -0.006,-0.59929 h 104.88364 a 0.29966,0.29966 0 0 1 0,0.59929 z"
     fill="#cccccc"
     id="path22" />
  <path
     d="M 305.79524,116.60047 H 200.91713 a 0.29966002,0.29966002 0 0 1 -0.006,-0.59929 h 104.88364 a 0.29966,0.29966 0 0 1 0,0.59929 z"
     fill="#cccccc"
     id="path24" />
  <path
     d="M 305.79524,123.79206 H 200.91713 a 0.29966002,0.29966002 0 0 1 -0.006,-0.59929 h 104.88364 a 0.29966,0.29966 0 0 1 0,0.59929 z"
     fill="#cccccc"
     id="path26" />
  <path
     d="m 419.32938,313.10177 v -33.96509 a 5.661,5.661 0 0 0 -5.66085,-5.66085 h -128.7843 a 5.661,5.661 0 0 0 -5.66084,5.66085 v 33.96509 z"
     fill="#cccccc"
     id="path28" />
  <rect
     x="279.22336"
     y="325.83868"
     width="140.10602"
     height="43.871578"
     fill="#cccccc"
     id="rect30" />
  <path
     d="m 279.22339,382.44717 v 33.96513 a 5.661,5.661 0 0 0 5.66084,5.66084 h 128.7843 a 5.661,5.661 0 0 0 5.66085,-5.66084 v -33.96513 z"
     fill="#cccccc"
     id="path32" />
  <circle
     cx="348.56879"
     cy="294.70401"
     r="4.2456398"
     fill="#ffffff"
     id="circle34" />
  <circle
     cx="348.56879"
     cy="351.3125"
     r="4.2456398"
     fill="#ffffff"
     id="circle36" />
  <circle
     cx="348.7963"
     cy="406.72229"
     r="4.2456398"
     fill="#ffffff"
     id="circle38" />
  <path
     d="m 403.44483,234.74883 v 38.9547 H 305.8487 a 19.48916,19.48916 0 0 1 -1.35647,-38.9547 q 0.678,-0.0236 1.35647,0 z"
     fill="#f2f2f2"
     id="path40" />
  <path
     d="m 405.8422,273.40388 a 1.49881,1.49881 0 0 1 -1.49822,1.49822 H 304.11044 a 20.52615,20.52615 0 0 1 -0.0247,-41.05229 h 100.25824 a 1.49827,1.49827 0 1 1 0,2.99653 H 304.11044 a 17.52963,17.52963 0 0 0 0,35.05923 h 100.23354 a 1.49885,1.49885 0 0 1 1.49822,1.49831 z"
     fill="#3f3d56"
     id="path42" />
  <path
     d="m 403.44483,243.7383 h -104.878 a 0.29966002,0.29966002 0 0 1 -0.006,-0.59929 h 104.88366 a 0.29966,0.29966 0 0 1 0,0.59929 z"
     fill="#cccccc"
     id="path44" />
  <path
     d="m 403.44483,250.93005 h -104.878 a 0.29966002,0.29966002 0 0 1 -0.006,-0.59929 h 104.88366 a 0.29966,0.29966 0 0 1 0,0.59929 z"
     fill="#cccccc"
     id="path46" />
  <path
     d="m 403.44483,258.12168 h -104.878 a 0.29966002,0.29966002 0 0 1 -0.006,-0.59929 h 104.88366 a 0.29966,0.29966 0 0 1 0,0.59929 z"
     fill="#cccccc"
     id="path48" />
  <path
     d="m 403.44483,265.31323 h -104.878 a 0.29966002,0.29966002 0 0 1 -0.006,-0.59929 h 104.88366 a 0.29966,0.29966 0 0 1 0,0.59929 z"
     fill="#cccccc"
     id="path50" />
  <path
     d="m 288.8233,80.23245 h -44.46585 a 2.74745,2.74745 0 0 0 -1.21689,0.28306 l -11.22288,5.61835 a 2.0452,2.0452 0 0 0 0,3.76443 l 11.22288,5.61835 a 2.74718,2.74718 0 0 0 1.21689,0.28306 h 44.46585 a 2.33381,2.33381 0 0 0 2.4628,-2.16532 v -11.2367 a 2.3338,2.3338 0 0 0 -2.4628,-2.16523 z"
     fill="#3f3d56"
     id="path52" />
  <path
     d="m 291.2861,82.39777 v 11.2367 a 2.33383,2.33383 0 0 1 -2.4628,2.16532 h -8.8589 V 80.23245 h 8.8589 a 2.33383,2.33383 0 0 1 2.4628,2.16532 z"
     fill="#27c38e"
     id="path54" />
  <path
     d="m 22.23666,300.41162 a 35.33951,35.33951 0 0 0 34.12552,-6.01134 c 11.95262,-10.03214 15.70013,-26.56 18.74934,-41.864 q 4.50949,-22.63308 9.019,-45.26617 l -18.88217,13.00153 c -13.57891,9.34993 -27.46375,18.99939 -36.86572,32.54233 -9.40197,13.54294 -13.50598,32.0302 -5.9518,46.68433"
     fill="#e6e6e6"
     id="path56"
     style="fill:#27c38e;fill-opacity:1" />
  <path
     d="M 23.85072,355.21571 C 21.93959,341.295 19.97447,327.19551 21.315,313.12555 c 1.19057,-12.4956 5.00277,-24.70032 12.764,-34.70734 a 57.73582,57.73582 0 0 1 14.81307,-13.42309 c 1.48131,-0.935 2.84468,1.41257 1.36983,2.34348 a 54.88844,54.88844 0 0 0 -21.71125,26.19626 c -4.72684,12.02273 -5.48591,25.12848 -4.67135,37.90006 0.4926,7.72345 1.53656,15.39627 2.58859,23.05926 a 1.40615,1.40615 0 0 1 -0.94781,1.66928 1.3653,1.3653 0 0 1 -1.6693,-0.94781 z"
     fill="#f2f2f2"
     id="path58" />
  <path
     d="m 42.25829,330.58264 a 26.01425,26.01425 0 0 0 22.6665,11.69871 c 11.47417,-0.54466 21.04,-8.55293 29.651,-16.15584 l 25.46969,-22.48783 -16.85671,-0.80672 c -12.12234,-0.58011 -24.55745,-1.12124 -36.10356,2.617 -11.54611,3.73824 -22.19457,12.73508 -24.30583,24.68624"
     fill="#e6e6e6"
     id="path60"
     style="fill:#27c38e;fill-opacity:1" />
  <path
     d="m 18.44975,363.21806 c 9.19853,-16.27621 19.86805,-34.36538 38.93262,-40.14695 a 43.445,43.445 0 0 1 16.37566,-1.69081 c 1.73863,0.14991 1.30448,2.82994 -0.431,2.6803 a 40.36111,40.36111 0 0 0 -26.133,6.91386 c -7.36852,5.01554 -13.10573,11.98848 -17.96161,19.383 -2.97439,4.52936 -5.63867,9.25082 -8.30346,13.966 -0.85161,1.50687 -3.34078,0.41915 -2.47922,-1.10534 z"
     fill="#f2f2f2"
     id="path62" />
  <path
     d="m 3.71106,380.34998 a 19.69836,19.69836 0 0 1 12.0709,-16.49847 v -9.40956 h 15.782 v 9.70608 a 19.68812,19.68812 0 0 1 11.41362,16.202 l 3.711,43.13835 H 0 Z"
     fill="#f2f2f2"
     id="path64" />
  <path
     d="m 540.42883,174.3733 -4.69488,-1.97685 -3.22067,-23.53551 h -42.889 l -3.491,23.43936 -4.20031,2.10013 a 0.99744,0.99744 0 0 0 0.44611,1.88955 h 57.66283 a 0.99739,0.99739 0 0 0 0.38692,-1.91668 z"
     fill="#e6e6e6"
     id="path66" />
  <path
     d="M 616.64563,151.9923 H 405.96275 a 4.174,4.174 0 0 1 -4.16467,-4.174 v -29.70908 h 219.01221 v 29.70908 a 4.17408,4.17408 0 0 1 -4.16466,4.174 z"
     fill="#cccccc"
     id="path68" />
  <path
     d="M 621.03052,132.15043 H 401.60583 V 5.03167 A 5.0375,5.0375 0 0 1 406.63769,0 h 209.361 a 5.03755,5.03755 0 0 1 5.03191,5.03167 z"
     fill="#3f3d56"
     id="path70" />
  <path
     d="m 607.92515,122.92414 h -193.214 a 3.88344,3.88344 0 0 1 -3.87919,-3.87908 V 13.10537 a 3.88365,3.88365 0 0 1 3.87919,-3.87932 h 193.214 a 3.88366,3.88366 0 0 1 3.8792,3.87932 v 105.93969 a 3.88345,3.88345 0 0 1 -3.8792,3.87908 z"
     fill="#ffffff"
     id="path72" />
  <path
     d="m 557.03547,160.30492 a 11.6159,11.6159 0 0 1 17.666,2.27241 l 26.13446,-4.64642 6.69716,15.19317 -36.99908,6.04328 a 11.67883,11.67883 0 0 1 -13.49855,-18.86244 z"
     fill="#ffb6b6"
     id="path74"
     style="fill:#ba938c;fill-opacity:1" />
  <path
     d="m 581.23194,179.7043 27.24571,-0.33963 3.44882,-0.0467 55.43253,-0.69843 c 0,0 15.05312,-14.3609 28.16068,-29.1465 l -1.83719,-13.28833 A 54.29159,54.29159 0 0 0 675.47883,102.5702 c -18.77312,12.5441 -29.66,37.37369 -29.66,37.37369 l -34.37018,8.22071 -3.43848,0.82227 -21.35608,5.10326 z"
     fill="#27c38e"
     id="path76" />
  <path
     d="m 720.70594,261.37997 h -50.85762 c 0,2.17915 -55.59414,3.94772 -55.59414,3.94772 a 20.30858,20.30858 0 0 0 -3.33166,3.15818 19.59694,19.59694 0 0 0 -4.58,12.63271 v 3.15818 a 19.74588,19.74588 0 0 0 19.73861,19.73861 h 94.62478 a 19.75579,19.75579 0 0 0 19.73862,-19.73861 v -3.15818 a 19.76607,19.76607 0 0 0 -19.73859,-19.73861 z"
     fill="#e4e4e4"
     id="path78" />
  <rect
     x="663.19434"
     y="303.23123"
     width="20.52816"
     height="118.48951"
     fill="#e4e4e4"
     id="rect80" />
  <path
     d="m 604.76805,420.99962 c 0,2.218 31.10721,0.858 69.47992,0.858 38.37271,0 69.47991,1.36012 69.47991,-0.858 0,-2.21812 -31.1072,-19.807 -69.47991,-19.807 -38.37271,0 -69.47992,17.58891 -69.47992,19.807 z"
     fill="#e4e4e4"
     id="path82" />
  <polygon
     points="659.908,407.46 652.64,348.531 675.188,348.532 675.186,407.461 "
     fill="#ffb6b6"
     id="polygon84"
     style="fill:#ba938c;fill-opacity:1"
     transform="translate(-84.20756)" />
  <path
     d="m 594.87446,422.2703 -49.2623,-0.002 v -0.62309 a 19.17528,19.17528 0 0 1 19.17426,-19.17395 h 10e-4 l 30.08773,0.001 z"
     fill="#2f2e41"
     id="path86"
     style="fill:#171c24;fill-opacity:1" />
  <polygon
     points="614.753,407.46 607.485,348.531 630.033,348.532 630.031,407.461 "
     fill="#ffb6b6"
     id="polygon88"
     style="fill:#ba938c;fill-opacity:1"
     transform="translate(-84.20756)" />
  <path
     d="m 549.71943,422.2703 -49.2623,-0.002 v -0.62309 a 19.1753,19.1753 0 0 1 19.17426,-19.17395 h 10e-4 l 30.08773,0.001 z"
     fill="#2f2e41"
     id="path90"
     style="fill:#171c24;fill-opacity:1" />
  <circle
     cx="682.67896"
     cy="41.63615"
     r="26.564011"
     fill="#ffb6b6"
     id="circle92"
     style="fill:#ba938c;fill-opacity:1" />
  <path
     d="m 725.67238,223.64247 c 0,0 8.91308,47.1307 -24.99958,53.13247 -33.91266,6.00177 -82.86639,10.21993 -82.86639,10.21993 l -21.98352,102.56667 -29.53443,-2.63675 c 0,0 3.928,-123.46737 13.5876,-133.127 9.6596,-9.65963 70.71212,-38.58282 70.71212,-38.58282 z"
     fill="#2f2e41"
     id="path94"
     style="fill:#171c24;fill-opacity:1" />
  <path
     d="m 659.43869,203.88965 -14.83186,14.87927 c 0,0 -107.0941,17.25 -111.22553,41.9852 -6.23747,37.34427 -13.60493,118.552 -13.60493,118.552 l 32.1988,-2.41491 12.62647,-92.31123 51.5182,-11.71874 58.61328,-31.94294 z"
     fill="#2f2e41"
     id="path96"
     style="fill:#171c24;fill-opacity:1" />
  <path
     d="m 708.24109,25.77945 c -2.6223,-4.94751 -6.95188,-8.57687 -12.50087,-9.74088 -2.93926,-0.9746 -7.76504,-1.94646 -10.84632,-2.25442 l -6.31552,-0.3684 4.00929,-0.69373 c -0.95325,-0.0568 -4.1302,0.15628 -5.0824,0.12048 l 1.75205,-1.28269 -5.34478,1.62174 c -6.69833,1.67628 -7.31021,1.94614 -11.60283,5.511 -3.71299,3.0835 -5.42434,4.19091 -7.33943,10.61436 -1.11656,6.28763 -0.96641,9.30137 0.10994,13.72884 l 1.20521,1.3543 c 0.53775,-1.23294 0.94205,-2.51987 1.206,-3.83883 1.11426,-4.98292 4.27255,-9.26761 8.70263,-11.80641 l 0.0837,-0.0472 c 2.5782,-1.451 5.7065,-1.3841 8.66308,-1.27769 l 14.04158,0.50527 c 3.37829,0.12158 7.01608,0.33533 9.64978,2.45443 1.67392,1.56322 2.99007,3.46988 3.85826,5.58929 1.30868,2.6414 3.8661,12.60418 3.8661,12.60418 0,0 1.44689,-1.88062 2.1404,-0.48092 1.11215,-3.65194 1.7883,-7.42264 2.01437,-11.23347 0.59203,-3.53235 -0.56132,-7.64701 -2.27022,-11.07932 z"
     fill="#2f2e41"
     id="path98"
     sodipodi:nodetypes="ccccccccscccccsssccccccc" />
  <path
     d="m 801.15009,53.30179 a 11.61582,11.61582 0 0 0 -10.51326,14.37787 l -21.3614,15.75722 6.40951,15.31674 29.85389,-22.67594 a 11.67883,11.67883 0 0 0 -4.38875,-22.77589 z"
     fill="#ffb6b6"
     id="path100"
     style="fill:#ba938c;fill-opacity:1" />
  <path
     d="m 797.7121,85.4703 -53.551,59.4744 c 0,0 -25.60913,-8.19816 -45.41466,-17.08624 l -8.8977,-27.32787 a 54.34329,54.34329 0 0 1 -2.60112,-19.66442 c 27.45606,-7.306 59.391,19.87863 59.391,19.87863 l 40.08517,-31.39877 z"
     fill="#27c38e"
     id="path102" />
  <path
     d="m 672.75683,228.0352 c -9.554,-3.30029 -19.43312,-6.71277 -30.08912,-7.99385 l -0.45773,-0.0553 0.12632,-0.443 c 11.03073,-38.7308 8.27761,-63.50657 2.87195,-100.72306 a 37.59072,37.59072 0 0 1 21.5483,-39.50121 l 0.0654,-0.0296 30.43436,-1.93391 0.0693,-0.004 22.13437,6.50989 a 15.18313,15.18313 0 0 1 10.86724,14.83111 c -0.23987,12.23937 0.26868,25.9043 0.80711,40.37114 1.20787,32.45569 2.45686,66.01647 -4.63045,87.79166 l -0.0372,0.11412 -0.0946,0.0742 a 36.09883,36.09883 0 0 1 -23.08086,8.10758 c -9.93489,-4e-5 -20.0736,-3.50205 -30.53446,-7.11549 z"
     fill="#27c38e"
     id="path104" />
</svg>
