<?xml version="1.0" encoding="UTF-8" standalone="no"?>
<svg
   id="a8771333-170f-4b31-b00f-586a01436e20"
   data-name="Layer 1"
   width="980"
   height="560"
   viewBox="0 0 980 560.00001"
   version="1.1"
   sodipodi:docname="site.svg"
   inkscape:version="1.1 (c68e22c387, 2021-05-23)"
   xmlns:inkscape="http://www.inkscape.org/namespaces/inkscape"
   xmlns:sodipodi="http://sodipodi.sourceforge.net/DTD/sodipodi-0.dtd"
   xmlns="http://www.w3.org/2000/svg"
   xmlns:svg="http://www.w3.org/2000/svg"
   xmlns:rdf="http://www.w3.org/1999/02/22-rdf-syntax-ns#"
   xmlns:cc="http://creativecommons.org/ns#"
   xmlns:dc="http://purl.org/dc/elements/1.1/">
  <defs
     id="defs83" />
  <sodipodi:namedview
     id="namedview81"
     pagecolor="#ffffff"
     bordercolor="#666666"
     borderopacity="1.0"
     inkscape:pageshadow="2"
     inkscape:pageopacity="0.0"
     inkscape:pagecheckerboard="0"
     showgrid="true"
     inkscape:zoom="0.55848569"
     inkscape:cx="821.86529"
     inkscape:cy="195.17062"
     inkscape:window-width="1366"
     inkscape:window-height="723"
     inkscape:window-x="0"
     inkscape:window-y="20"
     inkscape:window-maximized="1"
     inkscape:current-layer="a8771333-170f-4b31-b00f-586a01436e20">
    <inkscape:grid
       type="xygrid"
       id="grid87"
       visible="false" />
  </sodipodi:namedview>
  <title
     id="title2">personal_website</title>
  <rect
     x="8.195876e-06"
     width="980"
     height="21.51988"
     fill="#f2f2f2"
     id="rect6"
     y="0"
     style="stroke-width:0.986507" />
  <circle
     cx="18.100788"
     cy="10.44276"
     r="5.5694752"
     fill="#1a9ce8"
     id="circle8"
     style="stroke-width:0.819588" />
  <circle
     cx="36.201572"
     cy="10.44276"
     r="5.5694752"
     fill="#1a9ce8"
     id="circle10"
     style="stroke-width:0.819588" />
  <circle
     cx="54.302353"
     cy="10.44276"
     r="5.5694752"
     fill="#1a9ce8"
     id="circle12"
     style="stroke-width:0.819588" />
  <polygon
     points="0.584,502.277 0,502.779 0,679.903 825.318,679.903 825.318,368.779 815.482,369.525 "
     fill="#f2f2f2"
     id="polygon14"
     transform="matrix(1.1894806,0,0,0.82845841,0,-3.2713562)" />
  <g
     id="g93"
     transform="translate(152.63979)">
    <circle
       cx="316.66248"
       cy="542.78766"
       r="7.4302173"
       fill="#ffffff"
       id="circle22"
       style="stroke-width:0.819588" />
    <circle
       cx="338.21008"
       cy="543.53064"
       r="7.4302173"
       fill="#f2f2f2"
       id="circle24"
       style="stroke-width:0.819588" />
    <circle
       cx="359.75769"
       cy="544.27374"
       r="7.4302173"
       fill="#ffffff"
       id="circle26"
       style="stroke-width:0.819588" />
    <circle
       cx="338.27823"
       cy="543.53064"
       r="5.9441738"
       fill="#3f3d56"
       id="circle28"
       style="stroke-width:0.819588" />
  </g>
  <g
     id="g124"
     transform="translate(-2.9631207)">
    <circle
       cx="801.79669"
       cy="302.34933"
       r="68.828278"
       fill="#ff6584"
       id="circle4"
       style="stroke-width:0.819588" />
    <rect
       x="66.815811"
       y="215.25706"
       width="188.89062"
       height="7.6165595"
       fill="#3f3d56"
       id="rect16"
       style="stroke-width:0.819588" />
    <rect
       x="66.815811"
       y="232.01349"
       width="188.89062"
       height="7.6165595"
       fill="#3f3d56"
       id="rect18"
       style="stroke-width:0.819588" />
    <rect
       x="66.815811"
       y="248.76991"
       width="63.979084"
       height="7.6165595"
       fill="#3f3d56"
       id="rect20"
       style="stroke-width:0.819588" />
    <path
       d="m 802.60055,374.63056 c 0,48.49363 -53.071,30.73192 -118.53741,30.73192 -65.4664,0 -118.5374,17.76171 -118.5374,-30.73192 0,-48.49362 53.071,-144.87906 118.5374,-144.87906 65.4664,0 118.53741,96.38542 118.53741,144.87906 z"
       fill="#1a9ce8"
       id="path30"
       style="stroke-width:0.819588" />
    <path
       d="m 920.81018,415.2963 q -20.5948,-3.4891 -39.61221,-5.99289 l 5.01202,-9.7176 c -1.69006,-0.58697 -9.11525,4.97801 -9.11525,4.97801 l 6.57742,-28.20784 c -8.49999,1.02507 -12.82163,29.82695 -12.82163,29.82695 l -9.4966,-9.73768 4.59761,10.94777 a 876.82255,876.82255 0 0 0 -100.50163,-6.32504 l 4.28979,-8.31728 c -1.69005,-0.58697 -9.11529,4.97801 -9.11529,4.97801 l 6.57746,-28.20784 c -8.49994,1.02507 -12.82163,29.82696 -12.82163,29.82696 l -9.4966,-9.73772 4.86958,11.59552 c -11.02353,0.22047 -21.08543,0.6912 -30.20754,1.31518 l 1.51373,-2.93494 c -1.07202,-0.37233 -4.4499,1.72973 -6.77827,3.31756 -0.67111,0.0523 -1.32733,0.10654 -1.98723,0.16041 l 6.22767,-26.70781 c -6.93383,0.83619 -11.08671,20.15424 -12.38184,27.24536 -0.91224,0.0852 -1.81665,0.17121 -2.70487,0.25899 l -7.16521,-7.34711 c 6.00219,-9.31336 14.78799,-16.66295 14.78799,-16.66295 -11.25657,3.34788 -17.16123,8.95795 -20.24661,14.18815 a 227.1876,227.1876 0 0 1 13.13144,-78.49628 c 0,0 -23.26692,50.63084 -20.2981,84.61638 l 0.31779,5.40051 c -31.73648,-3.19347 -59.64046,-4.43907 -83.66285,-4.49109 l 4.28979,-8.31727 c -1.69006,-0.58697 -9.11529,4.97801 -9.11529,4.97801 l 6.57747,-28.20784 c -8.49995,1.02507 -12.82163,29.82696 -12.82163,29.82696 l -9.49661,-9.73774 4.86957,11.59552 a 564.54742,564.54742 0 0 0 -57.77412,3.92436 c 4.3389,-12.95674 19.07853,-25.27965 19.07853,-25.27965 -11.25657,3.34788 -17.16123,8.95796 -20.24661,14.18816 a 227.18745,227.18745 0 0 1 13.13144,-78.49629 c 0,0 -23.26692,50.63085 -20.2981,84.61639 l 0.3551,6.03486 c -19.72508,2.82436 -29.64199,5.76287 -29.64199,5.76287 l 266.45266,3.33997 q -6.97008,-1.18082 -13.75432,-2.24261 z m -224.56349,-18.74781 3.24162,7.71888 c -2.61188,0.27953 -5.12342,0.5676 -7.50921,0.86256 a 39.118049,39.118049 0 0 1 4.26759,-8.58144 z"
       fill="#3f3d56"
       id="path32"
       style="stroke-width:0.819588" />
    <path
       d="m 840.32335,408.19827 c -0.14394,-0.23522 -3.5377,-5.90185 -4.71427,-17.66889 -1.0792,-10.79561 -0.38525,-28.99248 9.05188,-54.37558 17.87836,-48.08662 -4.12017,-86.88554 -4.34495,-87.27202 l 1.08532,-0.62963 c 0.057,0.098 5.73345,9.9902 9.08677,25.74203 a 112.30388,112.30388 0 0 1 -4.65116,62.59693 c -17.84774,48.00454 -4.57892,70.72948 -4.44295,70.95364 z"
       fill="#3f3d56"
       id="path34"
       style="stroke-width:0.819588" />
    <circle
       cx="833.33252"
       cy="237.90486"
       r="8.1533642"
       fill="#1a9ce8"
       id="circle36"
       style="stroke-width:0.819588" />
    <circle
       cx="859.04694"
       cy="268.00961"
       r="8.1533642"
       fill="#3f3d56"
       id="circle38"
       style="stroke-width:0.819588" />
    <circle
       cx="841.48584"
       cy="288.07944"
       r="8.1533642"
       fill="#1a9ce8"
       id="circle40"
       style="stroke-width:0.819588" />
    <circle
       cx="862.81006"
       cy="305.01337"
       r="8.1533642"
       fill="#1a9ce8"
       id="circle42"
       style="stroke-width:0.819588" />
    <circle
       cx="835.21405"
       cy="331.35498"
       r="8.1533642"
       fill="#3f3d56"
       id="circle44"
       style="stroke-width:0.819588" />
    <path
       d="m 845.24893,408.49839 c 0,0 -8.15336,-20.06982 16.30674,-35.1222 z"
       fill="#3f3d56"
       id="path46"
       style="stroke-width:0.819588" />
    <path
       d="m 835.22156,408.13433 c 0,0 -3.71067,-21.34259 -32.43064,-21.15966 z"
       fill="#3f3d56"
       id="path48"
       style="stroke-width:0.819588" />
    <path
       d="m 703.3691,60.120064 c -8.94352,-15.111778 -26.63755,-15.81605 -26.63755,-15.81605 0,0 -17.24183,-2.204871 -28.30235,20.810551 -10.3093,21.452264 -24.53743,42.164855 -2.29062,47.186685 l 4.01844,-12.507129 2.48859,13.438259 a 87.043608,87.043608 0 0 0 9.51858,0.16268 c 23.82454,-0.76919 46.51382,0.22505 45.78325,-8.3242 -0.97117,-11.365005 4.02714,-30.410246 -4.57834,-44.950796 z"
       fill="#2f2e41"
       id="path50"
       style="stroke-width:0.819588" />
    <polygon
       points="537.12,270.378 539.415,227.524 516.458,212.985 472.074,222.167 469.778,263.49 "
       fill="#a0616a"
       id="polygon52"
       transform="matrix(0.81958763,0,0,0.81958763,252,0)" />
    <path
       d="m 787.23459,256.40674 c -1.65515,-15.99972 -67.3638,-23.26239 -83.15525,-24.77882 l -5.9046,-3.44437 -1.88155,-20.06983 c 0,0 -58.32793,-5.01745 -62.7182,-5.64464 -4.39028,-0.62718 -8.15337,7.52619 -8.15337,9.40774 0,1.35982 -0.8205,11.07058 -4.11573,16.82626 -7.11601,5.71799 -28.81132,23.70951 -28.81132,30.52598 0,8.15336 17.2475,110.6976 17.2475,110.6976 l 1.88155,21.32419 17.5611,3.13591 -1.25437,-66.4813 c 0,0 6.27182,-38.2581 -2.50876,-48.9202 v -4.39027 c 0,0 25.75355,-6.70967 34.8302,-14.01521 2.63005,-0.56517 10.02097,-1.95753 14.1029,-0.74664 0.55978,0.32963 1.20521,0.66817 1.92266,1.01258 a 2.9321895,2.9321895 0 0 1 0.25958,0.26486 c 0,0 0.0257,-0.0394 0.0708,-0.10841 11.74167,5.4958 41.86218,12.42784 54.18043,10.45692 a 43.110539,43.110539 0 0 1 27.59601,5.01745 c -6.89901,8.78055 -1.88155,33.86782 -1.88155,33.86782 l 0.62718,53.93766 8.78055,10.6621 h 11.91646 v -29.4775 c 0,0 11.28931,-70.8716 9.40777,-89.05988 z"
       fill="#2f2e41"
       id="path54"
       style="stroke-width:0.819588" />
    <circle
       cx="671.20593"
       cy="80.795761"
       r="20.697006"
       fill="#a0616a"
       id="circle56"
       style="stroke-width:0.819588" />
    <path
       d="m 658.66227,93.96659 c 0,0 3.13591,13.798 -1.25436,15.05237 a 59.354954,59.354954 0 0 0 -10.03492,4.39027 l -5.01747,16.30673 v 16.30674 l 60.83666,6.899 1.88155,-5.64464 v -8.15336 l -6.899,-12.54364 -3.13592,-3.13592 c 0,0 -13.798,-15.05236 -10.66209,-29.47755 z"
       fill="#a0616a"
       id="path58"
       style="stroke-width:0.819588" />
    <path
       d="m 712.91352,143.82757 c 0,0 1.88154,21.95137 0,31.98629 -1.88154,10.03491 -1.25436,25.08728 -1.25436,25.08728 l -13.79801,-2.50876 v -33.86782 l 3.13591,-18.18829 z"
       fill="#a0616a"
       id="path60"
       style="stroke-width:0.819588" />
    <circle
       cx="678.89709"
       cy="44.380547"
       r="12.793755"
       fill="#2f2e41"
       id="circle62"
       style="stroke-width:0.819588" />
    <path
       d="m 664.75665,41.013771 a 12.794246,12.794246 0 0 1 11.44702,-12.721827 12.793763,12.793763 0 1 0 0,25.443663 12.794255,12.794255 0 0 1 -11.44702,-12.721836 z"
       fill="#2f2e41"
       id="path64"
       style="stroke-width:0.819588" />
    <polygon
       points="546.918,91.382 545.903,71.577 524.574,60.404 495.12,64.975 489.026,91.89 504.195,91.306 508.433,81.418 508.433,91.143 515.433,90.874 519.496,75.131 522.035,91.89 "
       fill="#2f2e41"
       id="polygon66"
       transform="matrix(0.81958763,0,0,0.81958763,252,0)" />
    <rect
       x="635.77014"
       y="221.59813"
       width="76.516205"
       height="76.516205"
       fill="#f2f2f2"
       id="rect68"
       style="stroke-width:0.819588" />
    <path
       d="m 623.22649,133.16547 -11.28928,46.41147 c 0,0 -4.39028,10.03491 5.64464,16.30673 10.03491,6.27182 32.61346,14.42519 32.61346,14.42519 0,0 20.06983,27.59601 22.57856,16.30673 2.50873,-11.28927 -15.05237,-25.71446 -15.05237,-25.71446 l -30.73192,-19.44264 11.91646,-32.61348 z"
       fill="#a0616a"
       id="path70"
       style="stroke-width:0.819588" />
    <path
       d="m 704.76016,191.4934 c 0,0 9.40772,-1.25437 8.78054,9.40773 -0.62718,10.6621 -13.17082,11.91646 -13.17082,11.91646 0,0 -5.64464,23.83291 -13.79801,19.44264 -8.15336,-4.39026 4.39027,-28.22319 4.39027,-28.22319 l 10.6621,-8.15337 z"
       fill="#a0616a"
       id="path72"
       style="stroke-width:0.819588" />
    <path
       d="m 644.23708,129.08878 10.03492,-20.697 -20.06983,6.899 c 0,0 -11.28927,5.64464 -11.91646,18.81546 -0.62719,13.17082 14.42519,20.06982 14.42519,20.06982 0,0 2.50876,18.81546 1.25436,21.3242 -1.25439,2.50873 0,12.54364 0,12.54364 0,0 24.14651,-6.58539 36.06297,1.56795 11.91646,8.15334 21.63778,3.4495 21.63778,3.4495 0,0 -0.62718,-15.67953 4.39028,-18.18829 5.01746,-2.50876 9.40772,-14.42519 5.01746,-21.95138 0,0 10.0349,1.25437 9.40772,-8.15336 -0.62718,-9.40773 -5.64464,-17.5611 -13.798,-21.32419 -8.15337,-3.7631 -9.05468,-4.36431 -9.05468,-4.36431 l 11.5634,21.29825 v 5.64464 c 0,0 -20.47052,-13.0663 -40.72327,-14.15515 a 26.975563,26.975563 0 0 0 -18.23146,6.00148 l -3.8e-4,3e-4 z"
       fill="#2f2e41"
       id="path74"
       style="stroke-width:0.819588" />
    <path
       d="m 628.20897,370.18913 c 0,0 8.89977,4.18809 11.51735,5.75867 2.61758,1.57057 13.0879,-1.57055 10.99383,7.85274 -2.09408,9.42328 -10.99386,18.32305 -10.99386,18.32305 0,0 -4.18814,4.71164 -4.18814,7.85274 0,3.14109 -10.47031,27.22282 -23.0347,26.17579 -12.56438,-1.04703 -10.47031,-13.61141 -10.47031,-13.61141 l 2.61758,-13.61141 c 0,0 5.23516,-23.0347 6.28219,-22.51118 1.04703,0.52352 3.66462,4.18809 3.66462,4.18809 0,0 13.08792,-5.23512 13.61144,-20.41708 z"
       fill="#d0cde1"
       id="path76"
       style="stroke-width:0.819588" />
    <path
       d="m 758.73279,354.50957 c 0,0 -8.89977,4.18809 -11.51736,5.75868 -2.61758,1.57058 -13.08789,-1.57055 -10.99383,7.85274 2.09406,9.42329 10.99383,18.32305 10.99383,18.32305 0,0 4.1881,4.71165 4.1881,7.85274 0,3.1411 10.47032,27.22283 23.0347,26.17579 12.56437,-1.04703 10.47032,-13.61141 10.47032,-13.61141 l -2.61758,-13.61141 c 0,0 -5.23516,-23.0347 -6.28219,-22.51119 -1.04703,0.52351 -3.66462,4.18814 -3.66462,4.18814 0,0 -13.08786,-5.23517 -13.61137,-20.41713 z"
       fill="#d0cde1"
       id="path78"
       style="stroke-width:0.819588" />
  </g>
  <metadata
     id="metadata85">
    <rdf:RDF>
      <cc:Work
         rdf:about="">
        <dc:title>personal_website</dc:title>
      </cc:Work>
    </rdf:RDF>
  </metadata>
</svg>
