<?xml version="1.0" encoding="UTF-8" standalone="no"?>
<svg
   id="ba230943-1bdb-4bd0-9561-c7824586c7f7"
   data-name="Layer 1"
   width="980"
   height="560"
   viewBox="0 0 980.00001 559.99998"
   version="1.1"
   sodipodi:docname="thinking.svg"
   inkscape:version="1.1 (c68e22c387, 2021-05-23)"
   xmlns:inkscape="http://www.inkscape.org/namespaces/inkscape"
   xmlns:sodipodi="http://sodipodi.sourceforge.net/DTD/sodipodi-0.dtd"
   xmlns="http://www.w3.org/2000/svg"
   xmlns:svg="http://www.w3.org/2000/svg">
  <defs
     id="defs71" />
  <sodipodi:namedview
     id="namedview69"
     pagecolor="#ffffff"
     bordercolor="#666666"
     borderopacity="1.0"
     inkscape:pageshadow="2"
     inkscape:pageopacity="0.0"
     inkscape:pagecheckerboard="0"
     showgrid="false"
     inkscape:zoom="0.58362847"
     inkscape:cx="657.95282"
     inkscape:cy="296.42145"
     inkscape:window-width="1366"
     inkscape:window-height="723"
     inkscape:window-x="0"
     inkscape:window-y="20"
     inkscape:window-maximized="1"
     inkscape:current-layer="ba230943-1bdb-4bd0-9561-c7824586c7f7" />
  <path
     d="m 205.89745,327.7757 a 8.7342235,8.7342235 0 1 0 -17.38416,1.14829 l -25.09394,32.86162 a 12.166582,12.166582 0 0 0 1.64439,13.35938 l 1.96849,2.2963 9.03186,-1.80644 10.23661,-9.03213 -1.20447,-10.23641 12.64506,-19.87069 -0.0164,-0.0142 a 8.7271563,8.7271563 0 0 0 8.1725,-8.70566 z"
     fill="#ffb9b9"
     id="path2"
     style="stroke-width:0.895749" />
  <polygon
     points="25.468,405.984 88.8,380.265 95.549,405.331 30.041,422.968 "
     fill="#ffb8b8"
     id="polygon4"
     transform="matrix(0.89575168,0,0,0.89575168,5.4549344,109.55782)" />
  <path
     d="M 18.661986,496.28239 5.4549344,447.22913 6.0753677,447.06207 a 19.773862,19.773862 0 0 1 24.2336653,13.95152 l 3.33e-4,8.4e-4 8.066324,29.9601 z"
     fill="#2f2e41"
     id="path6"
     style="stroke-width:0.895749" />
  <polygon
     points="103.054,409.91 136.185,350.121 157.179,365.388 117.278,420.254 "
     fill="#ffb8b8"
     id="polygon8"
     transform="matrix(0.89575168,0,0,0.89575168,5.4549344,109.55782)" />
  <path
     d="m 104.7749,500.71576 -41.084657,-29.87808 0.377889,-0.51967 a 19.773871,19.773871 0 0 1 27.620331,-4.36267 l 8.46e-4,7.3e-4 25.093041,18.24864 z"
     fill="#2f2e41"
     id="path10"
     style="stroke-width:0.895749" />
  <path
     d="M 218.81613,411.16116 186.7527,380.01351 a 16.19184,16.19184 0 0 0 -21.20094,-1.18427 l -60.54056,67.25632 5.41945,8.42977 57.80535,-39.13928 39.13931,51.18206 37.33281,-18.66605 z"
     fill="#2f2e41"
     id="path12"
     style="stroke-width:0.895749" />
  <path
     d="m 204.96704,417.7848 -23.48369,-1.80643 -17.00673,-4.1229 a 8.735872,8.735872 0 1 0 -1.65714,11.33638 l -0.002,0.0122 10.23658,4.21498 43.95615,15.05357 5.4193,-4.21499 z"
     fill="#ffb9b9"
     id="path14"
     style="stroke-width:0.895749" />
  <polygon
     points="271.131,426.11 253.653,426.11 172.315,395.86 53.332,417.371 49.971,391.826 158.871,344.099 254.326,375.693 285.92,416.699 "
     fill="#2f2e41"
     id="polygon16"
     transform="matrix(0.89575168,0,0,0.89575168,5.4549344,109.55782)" />
  <circle
     cx="233.2677"
     cy="313.01208"
     r="23.483545"
     fill="#ffb9b9"
     id="circle18"
     style="stroke-width:0.895749" />
  <path
     d="m 294.02983,406.77161 a 134.92797,134.92797 0 0 1 -6.61754,41.73449 l -1.75824,5.40727 -8.43,38.53712 -9.03212,2.40854 -6.62356,-8.42997 -13.24714,-9.63426 -9.63427,-15.65569 -8.26138,-13.76501 -2.57718,-4.29932 -9.03214,-45.16066 -34.3221,-19.26851 -11.4407,-1.80644 2.40858,-6.62356 10.23642,-13.84927 10.23637,-1.20433 3.01072,-2.40857 2.40856,1.20428 13.27735,5.11486 43.04703,-18.18735 6.2984,1.02968 21.67709,18.06428 a 134.80984,134.80984 0 0 1 8.37585,46.79242 z"
     fill="#cccccc"
     id="path20"
     style="stroke-width:0.895749" />
  <polygon
     points="242.226,331.999 263.065,293.683 314.825,325.949 289.281,342.754 251.153,377.131 248.276,372.332 240.209,331.999 "
     opacity="0.1"
     style="isolation:isolate"
     id="polygon22"
     transform="matrix(0.89575168,0,0,0.89575168,5.4549344,109.55782)" />
  <polygon
     points="289.281,338.721 314.825,321.915 263.065,289.649 242.226,327.965 230.126,341.41 219.371,344.099 248.276,375.693 "
     fill="#cccccc"
     id="polygon24"
     transform="matrix(0.89575168,0,0,0.89575168,5.4549344,109.55782)" />
  <path
     d="m 215.00227,295.55104 -2.54439,0.97894 a 3.5519421,3.5519421 0 0 1 -0.94979,-4.9326 q 0.0204,-0.0304 0.0417,-0.0602 l -4.70195,-0.22004 a 35.505303,35.505303 0 0 1 53.00466,-4.27229 c 0.21409,-0.7373 2.5477,0.69715 3.50046,2.15167 0.32012,-1.19976 2.5082,4.59987 3.2821,8.69944 0.3583,-1.365 1.73589,0.8386 0.52899,2.95302 0.7647,-0.11173 1.11011,1.84478 0.51814,2.93478 0.83662,-0.39304 0.69557,1.94248 -0.2115,3.50328 1.19378,-0.10604 -0.10187,24.48198 -18.01687,22.69048 -1.24721,-5.73055 -0.89574,-5.37451 -2.3644,-12.74331 -0.68357,-0.72556 -1.43214,-1.38644 -2.1795,-2.04612 l -4.04211,-3.56806 c -4.70027,-4.14896 -8.97601,-9.26963 -15.23757,-10.82027 -4.30313,-1.06567 -7.02398,-1.30625 -4.67891,-6.15518 -2.11874,0.88417 -4.09727,2.19901 -6.23501,3.02021 0.0288,-0.67755 0.3275,-1.43573 0.28593,-2.11363 z"
     fill="#2f2e41"
     id="path26"
     style="stroke-width:0.895749" />
  <circle
     cx="244.4939"
     cy="337.62372"
     r="3.6994362"
     fill="#ffb9b9"
     id="circle28"
     style="stroke-width:0.786188" />
  <rect
     x="-164.88998"
     y="80.863281"
     width="24.30027"
     height="24.30027"
     transform="rotate(-86.18992)"
     fill="#e6e6e6"
     style="isolation:isolate;stroke-width:1.12448"
     id="rect30" />
  <path
     d="m 55.698508,158.52745 29.442242,1.96074 -1.96076,29.44225 -29.442242,-1.96075 z m 28.07689,3.1556 -26.88205,-1.79025 -1.790248,26.88199 26.882051,1.79026 z"
     fill="#cccccc"
     id="path32"
     style="stroke-width:1.12448" />
  <rect
     x="163.91972"
     y="115.88047"
     width="24.30027"
     height="24.30027"
     transform="rotate(-12.12675)"
     fill="#e6e6e6"
     style="isolation:isolate;stroke-width:1.12448"
     id="rect34" />
  <path
     d="m 191.68823,62.246863 6.19879,28.849009 -28.84902,6.19878 -6.19878,-28.849011 z m 4.67497,27.864226 -5.65976,-26.340389 -26.3404,5.65976 5.65975,26.340417 z"
     fill="#cccccc"
     id="path36"
     style="stroke-width:1.12448" />
  <rect
     x="-18.865114"
     y="262.47485"
     width="24.300261"
     height="24.30027"
     transform="rotate(-43.12712)"
     fill="#e6e6e6"
     style="isolation:isolate;stroke-width:1.12448"
     id="rect38" />
  <path
     d="m 201.28701,185.36368 -21.53568,20.17187 -20.17188,-21.53568 21.5357,-20.17186 z m -21.4764,18.35848 19.66301,-18.41778 -18.4178,-19.66299 -19.66302,18.41779 z"
     fill="#cccccc"
     id="path40"
     style="stroke-width:1.12448" />
  <path
     d="M 918.60341,68.824424 H 287.56777 A 17.368742,17.368742 0 0 0 270.19901,86.193159 V 437.7945 a 17.368791,17.368791 0 0 0 17.36876,17.36882 H 918.60341 A 17.368811,17.368811 0 0 0 935.97217,437.7945 V 86.193159 A 17.368772,17.368772 0 0 0 918.60341,68.824424 Z"
     fill="#3f3d56"
     id="path42"
     style="stroke-width:0.986946" />
  <rect
     x="293.48523"
     y="99.519844"
     width="619.20068"
     height="349.29269"
     fill="#ffffff"
     id="rect44"
     style="stroke-width:0.986946" />
  <circle
     cx="602.55634"
     cy="83.642899"
     r="6.3507643"
     fill="#ffffff"
     id="circle46"
     style="stroke-width:0.986946" />
  <polygon
     points="777.858,385.015 329.89,385.015 329.89,31.102 "
     fill="#f2f2f2"
     style="isolation:isolate"
     id="polygon48"
     transform="matrix(0.98694502,0,0,0.98694502,-32.098134,68.824424)" />
  <circle
     cx="390.37155"
     cy="363.15536"
     r="59.519497"
     fill="#1a9ce8"
     id="circle50"
     style="stroke-width:0.986946" />
  <path
     d="M 403.62124,407.89 A 74.036441,74.036441 0 1 1 477.65771,333.85357 74.036451,74.036451 0 0 1 403.62124,407.89 Z m 0,-147.10516 a 73.068663,73.068663 0 1 0 73.06865,73.06876 73.068653,73.068653 0 0 0 -73.06869,-73.06869 z"
     fill="#3f3d56"
     id="path52"
     style="stroke-width:0.986946" />
  <rect
     x="711.50275"
     y="280.98758"
     width="57.840134"
     height="12.085991"
     fill="#3f3d56"
     id="rect54"
     style="stroke-width:0.986946" />
  <rect
     x="656.78046"
     y="215.51088"
     width="167.28464"
     height="5.1797147"
     fill="#3f3d56"
     id="rect56"
     style="stroke-width:0.986946" />
  <rect
     x="656.78046"
     y="235.86108"
     width="167.28464"
     height="5.1797147"
     fill="#3f3d56"
     id="rect58"
     style="stroke-width:0.986946" />
  <rect
     x="656.78046"
     y="256.2113"
     width="167.28464"
     height="5.1797147"
     fill="#3f3d56"
     id="rect60"
     style="stroke-width:0.986946" />
  <rect
     x="844.70532"
     y="120.42352"
     width="24.172022"
     height="24.171991"
     fill="#1a9ce8"
     id="rect62"
     style="stroke-width:0.986946" />
  <path
     d="m 880.09992,155.8182 h -29.35169 v -29.35174 h 29.35169 z m -28.07547,-1.27612 h 26.79935 v -26.7994 h -26.79941 z"
     fill="#cccccc"
     id="path64"
     style="stroke-width:0.986946" />
  <path
     d="m 953.3579,442.46177 h -60.43006 v -4.35398 a 0.86324134,0.86324134 0 0 0 -0.86319,-0.86326 h -20.71893 a 0.86326109,0.86326109 0 0 0 -0.86337,0.86321 v 4.35403 h -12.94912 v -4.35398 a 0.86326109,0.86326109 0 0 0 -0.86328,-0.86326 H 835.9511 a 0.86325121,0.86325121 0 0 0 -0.86326,0.86326 v 0 4.35398 h -12.94926 v -4.35398 a 0.86325121,0.86325121 0 0 0 -0.86327,-0.86326 h -20.71894 a 0.86326109,0.86326109 0 0 0 -0.86328,0.86326 v 0 4.35398 h -12.94924 v -4.35398 a 0.86326109,0.86326109 0 0 0 -0.86327,-0.86326 h -20.71886 a 0.86324134,0.86324134 0 0 0 -0.86327,0.86321 v 4.35403 H 751.3492 v -4.35398 a 0.86326109,0.86326109 0 0 0 -0.86328,-0.86326 h -20.71886 a 0.86325121,0.86325121 0 0 0 -0.86327,0.86326 v 0 4.35398 h -12.94933 v -4.35398 a 0.86325121,0.86325121 0 0 0 -0.86326,-0.86326 h -20.71886 a 0.86326109,0.86326109 0 0 0 -0.86329,0.86326 v 0 4.35398 h -12.94924 v -4.35398 a 0.86326109,0.86326109 0 0 0 -0.86329,-0.86326 H 517.39889 a 0.86325121,0.86325121 0 0 0 -0.86328,0.86326 v 0 4.35398 h -12.94932 v -4.35398 a 0.86325121,0.86325121 0 0 0 -0.86327,-0.86326 h -20.7188 a 0.86326109,0.86326109 0 0 0 -0.86328,0.86326 v 0 4.35398 h -12.94931 v -4.35398 a 0.86324134,0.86324134 0 0 0 -0.86321,-0.86326 h -20.71895 a 0.86325121,0.86325121 0 0 0 -0.86326,0.86326 v 0 4.35398 H 432.7969 v -4.35398 a 0.86325121,0.86325121 0 0 0 -0.86327,-0.86326 h -20.71887 a 0.86326109,0.86326109 0 0 0 -0.86327,0.86326 v 0 4.35398 h -12.94925 v -4.35398 a 0.86325121,0.86325121 0 0 0 -0.86328,-0.86326 H 375.8201 a 0.86326109,0.86326109 0 0 0 -0.86327,0.86326 v 0 4.35398 h -12.94931 v -4.35398 a 0.86326109,0.86326109 0 0 0 -0.86329,-0.86326 h -20.71888 a 0.86326109,0.86326109 0 0 0 -0.86326,0.86321 v 4.35403 h -12.94928 v -4.35398 a 0.86325121,0.86325121 0 0 0 -0.86324,-0.86326 h -20.71886 a 0.86328083,0.86328083 0 0 0 -0.86327,0.86326 v 0 4.35398 h -39.71119 a 20.718859,20.718859 0 0 0 -20.71882,20.71885 v 9.36858 a 20.718848,20.718848 0 0 0 20.71882,20.7188 H 953.3579 a 20.718869,20.718869 0 0 0 20.71883,-20.7188 v -9.36858 A 20.718839,20.718839 0 0 0 953.3579,442.46177 Z"
     fill="#3f3d56"
     id="path66"
     style="stroke-width:0.986946" />
</svg>
